<?xml version="1.0" encoding="UTF-8" standalone="no"?><svg xmlns="http://www.w3.org/2000/svg" xmlns:xlink="http://www.w3.org/1999/xlink" contentScriptType="application/ecmascript" contentStyleType="text/css" height="238px" preserveAspectRatio="none" style="width:509px;height:238px;" version="1.1" viewBox="0 0 509 238" width="509px" zoomAndPan="magnify"><defs><filter height="300%" id="fnapdggn4kn25" width="300%" x="-1" y="-1"><feGaussianBlur result="blurOut" stdDeviation="2.0"/><feColorMatrix in="blurOut" result="blurOut2" type="matrix" values="0 0 0 0 0 0 0 0 0 0 0 0 0 0 0 0 0 0 .4 0"/><feOffset dx="4.0" dy="4.0" in="blurOut2" result="blurOut3"/><feBlend in="SourceGraphic" in2="blurOut3" mode="normal"/></filter></defs><g><!--class Director--><rect fill="#FEFECE" filter="url(#fnapdggn4kn25)" height="60.8047" id="Director" style="stroke: #A80036; stroke-width: 1.5;" width="87" x="267.5" y="20.5"/><ellipse cx="284.75" cy="36.5" fill="#ADD1B2" rx="11" ry="11" style="stroke: #A80036; stroke-width: 1.0;"/><path d="M287.7188,42.1406 Q287.1406,42.4375 286.5,42.5781 Q285.8594,42.7344 285.1563,42.7344 Q282.6563,42.7344 281.3281,41.0938 Q280.0156,39.4375 280.0156,36.3125 Q280.0156,33.1875 281.3281,31.5313 Q282.6563,29.875 285.1563,29.875 Q285.8594,29.875 286.5,30.0313 Q287.1563,30.1875 287.7188,30.4844 L287.7188,33.2031 Q287.0938,32.625 286.5,32.3594 Q285.9063,32.0781 285.2813,32.0781 Q283.9375,32.0781 283.25,33.1563 Q282.5625,34.2188 282.5625,36.3125 Q282.5625,38.4063 283.25,39.4844 Q283.9375,40.5469 285.2813,40.5469 Q285.9063,40.5469 286.5,40.2813 Q287.0938,40 287.7188,39.4219 L287.7188,42.1406 Z "/><text fill="#000000" font-family="sans-serif" font-size="12" lengthAdjust="spacingAndGlyphs" textLength="50" x="299.25" y="40.6543">Director</text><line style="stroke: #A80036; stroke-width: 1.5;" x1="268.5" x2="353.5" y1="52.5" y2="52.5"/><line style="stroke: #A80036; stroke-width: 1.5;" x1="268.5" x2="353.5" y1="60.5" y2="60.5"/><ellipse cx="278.5" cy="72.4023" fill="#84BE84" rx="3" ry="3" style="stroke: #038048; stroke-width: 1.0;"/><text fill="#000000" font-family="sans-serif" font-size="11" lengthAdjust="spacingAndGlyphs" textLength="61" x="287.5" y="74.7104">construct()</text><!--class Builder--><rect fill="#FEFECE" filter="url(#fnapdggn4kn25)" height="60.8047" id="Builder" style="stroke: #A80036; stroke-width: 1.5;" width="84" x="390" y="20.5"/><ellipse cx="409.05" cy="36.5" fill="#ADD1B2" rx="11" ry="11" style="stroke: #A80036; stroke-width: 1.0;"/><path d="M412.0188,42.1406 Q411.4406,42.4375 410.8,42.5781 Q410.1594,42.7344 409.4563,42.7344 Q406.9563,42.7344 405.6281,41.0938 Q404.3156,39.4375 404.3156,36.3125 Q404.3156,33.1875 405.6281,31.5313 Q406.9563,29.875 409.4563,29.875 Q410.1594,29.875 410.8,30.0313 Q411.4563,30.1875 412.0188,30.4844 L412.0188,33.2031 Q411.3938,32.625 410.8,32.3594 Q410.2063,32.0781 409.5813,32.0781 Q408.2375,32.0781 407.55,33.1563 Q406.8625,34.2188 406.8625,36.3125 Q406.8625,38.4063 407.55,39.4844 Q408.2375,40.5469 409.5813,40.5469 Q410.2063,40.5469 410.8,40.2813 Q411.3938,40 412.0188,39.4219 L412.0188,42.1406 Z "/><text fill="#000000" font-family="sans-serif" font-size="12" lengthAdjust="spacingAndGlyphs" textLength="43" x="423.95" y="40.6543">Builder</text><line style="stroke: #A80036; stroke-width: 1.5;" x1="391" x2="473" y1="52.5" y2="52.5"/><line style="stroke: #A80036; stroke-width: 1.5;" x1="391" x2="473" y1="60.5" y2="60.5"/><ellipse cx="401" cy="72.4023" fill="#84BE84" rx="3" ry="3" style="stroke: #038048; stroke-width: 1.0;"/><text fill="#000000" font-family="sans-serif" font-size="11" lengthAdjust="spacingAndGlyphs" textLength="58" x="410" y="74.7104">buildPart()</text><!--class ConcreteBuilder--><rect fill="#FEFECE" filter="url(#fnapdggn4kn25)" height="73.6094" id="ConcreteBuilder" style="stroke: #A80036; stroke-width: 1.5;" width="132" x="366" y="154"/><ellipse cx="381" cy="170" fill="#ADD1B2" rx="11" ry="11" style="stroke: #A80036; stroke-width: 1.0;"/><path d="M383.9688,175.6406 Q383.3906,175.9375 382.75,176.0781 Q382.1094,176.2344 381.4063,176.2344 Q378.9063,176.2344 377.5781,174.5938 Q376.2656,172.9375 376.2656,169.8125 Q376.2656,166.6875 377.5781,165.0313 Q378.9063,163.375 381.4063,163.375 Q382.1094,163.375 382.75,163.5313 Q383.4063,163.6875 383.9688,163.9844 L383.9688,166.7031 Q383.3438,166.125 382.75,165.8594 Q382.1563,165.5781 381.5313,165.5781 Q380.1875,165.5781 379.5,166.6563 Q378.8125,167.7188 378.8125,169.8125 Q378.8125,171.9063 379.5,172.9844 Q380.1875,174.0469 381.5313,174.0469 Q382.1563,174.0469 382.75,173.7813 Q383.3438,173.5 383.9688,172.9219 L383.9688,175.6406 Z "/><text fill="#000000" font-family="sans-serif" font-size="12" lengthAdjust="spacingAndGlyphs" textLength="100" x="395" y="174.1543">ConcreteBuilder</text><line style="stroke: #A80036; stroke-width: 1.5;" x1="367" x2="497" y1="186" y2="186"/><line style="stroke: #A80036; stroke-width: 1.5;" x1="367" x2="497" y1="194" y2="194"/><ellipse cx="377" cy="205.9023" fill="#84BE84" rx="3" ry="3" style="stroke: #038048; stroke-width: 1.0;"/><text fill="#000000" font-family="sans-serif" font-size="11" lengthAdjust="spacingAndGlyphs" textLength="58" x="386" y="208.2104">buildPart()</text><ellipse cx="377" cy="218.707" fill="#84BE84" rx="3" ry="3" style="stroke: #038048; stroke-width: 1.0;"/><text fill="#000000" font-family="sans-serif" font-size="11" lengthAdjust="spacingAndGlyphs" textLength="61" x="386" y="221.0151">getResult()</text><path d="M6,8 L6,93.6641 A0,0 0 0 0 6,93.6641 L232,93.6641 A0,0 0 0 0 232,93.6641 L232,55 L267.32,51 L232,47 L232,18 L222,8 L6,8 A0,0 0 0 0 6,8 " fill="#FBFB77" filter="url(#fnapdggn4kn25)" style="stroke: #A80036; stroke-width: 1.0;"/><path d="M222,8 L222,18 L232,18 L222,8 " fill="#FBFB77" style="stroke: #A80036; stroke-width: 1.0;"/><text fill="#000000" font-family="sans-serif" font-size="13" lengthAdjust="spacingAndGlyphs" textLength="112" x="12" y="25.0669">void construct() {</text><text fill="#000000" font-family="sans-serif" font-size="13" lengthAdjust="spacingAndGlyphs" textLength="177" x="40" y="40.1997">For all objects in structure {</text><text fill="#000000" font-family="sans-serif" font-size="13" lengthAdjust="spacingAndGlyphs" textLength="125" x="52" y="55.3325">builder-&gt;buildPart()</text><text fill="#000000" font-family="sans-serif" font-size="13" lengthAdjust="spacingAndGlyphs" textLength="8" x="40" y="70.4653">}</text><text fill="#000000" font-family="sans-serif" font-size="13" lengthAdjust="spacingAndGlyphs" textLength="8" x="12" y="85.5981">}</text><!--link Builder to ConcreteBuilder--><path d="M432,101.76 C432,118.97 432,137.91 432,153.82 " fill="none" id="Builder-ConcreteBuilder" style="stroke: #A80036; stroke-width: 1.0;"/><polygon fill="none" points="425,101.6,432,81.6,439,101.6,425,101.6" style="stroke: #A80036; stroke-width: 1.0;"/><!--
@startuml


class Director {
	+ construct()
}

class Builder {
	+ buildPart()
}

class ConcreteBuilder {
	+ buildPart()
	+ getResult()
}

Builder <|- - ConcreteBuilder

note left of Director
	void construct() {
        For all objects in structure {
           builder->buildPart()
        }	
	}
end note

@enduml

PlantUML version 1.2018.13(Mon Nov 26 19:11:51 EET 2018)
(GPL source distribution)
Java Runtime: OpenJDK Runtime Environment
JVM: OpenJDK 64-Bit Server VM
Java Version: 11.0.10+9
Operating System: Linux
OS Version: 5.4.0-1039-azure
Default Encoding: UTF-8
Language: en
Country: null
--></g></svg>