<?xml version="1.0" encoding="UTF-8" standalone="no"?><svg xmlns="http://www.w3.org/2000/svg" xmlns:xlink="http://www.w3.org/1999/xlink" contentScriptType="application/ecmascript" contentStyleType="text/css" height="92px" preserveAspectRatio="none" style="width:199px;height:92px;" version="1.1" viewBox="0 0 199 92" width="199px" zoomAndPan="magnify"><defs><filter height="300%" id="fb8sdyv53ie3m" width="300%" x="-1" y="-1"><feGaussianBlur result="blurOut" stdDeviation="2.0"/><feColorMatrix in="blurOut" result="blurOut2" type="matrix" values="0 0 0 0 0 0 0 0 0 0 0 0 0 0 0 0 0 0 .4 0"/><feOffset dx="4.0" dy="4.0" in="blurOut2" result="blurOut3"/><feBlend in="SourceGraphic" in2="blurOut3" mode="normal"/></filter></defs><g><!--class Singletone--><rect fill="#FEFECE" filter="url(#fb8sdyv53ie3m)" height="73.6094" id="Singletone" style="stroke: #A80036; stroke-width: 1.5;" width="182" x="6" y="8"/><ellipse cx="59.25" cy="24" fill="#ADD1B2" rx="11" ry="11" style="stroke: #A80036; stroke-width: 1.0;"/><path d="M62.2188,29.6406 Q61.6406,29.9375 61,30.0781 Q60.3594,30.2344 59.6563,30.2344 Q57.1563,30.2344 55.8281,28.5938 Q54.5156,26.9375 54.5156,23.8125 Q54.5156,20.6875 55.8281,19.0313 Q57.1563,17.375 59.6563,17.375 Q60.3594,17.375 61,17.5313 Q61.6563,17.6875 62.2188,17.9844 L62.2188,20.7031 Q61.5938,20.125 61,19.8594 Q60.4063,19.5781 59.7813,19.5781 Q58.4375,19.5781 57.75,20.6563 Q57.0625,21.7188 57.0625,23.8125 Q57.0625,25.9063 57.75,26.9844 Q58.4375,28.0469 59.7813,28.0469 Q60.4063,28.0469 61,27.7813 Q61.5938,27.5 62.2188,26.9219 L62.2188,29.6406 Z "/><text fill="#000000" font-family="sans-serif" font-size="12" lengthAdjust="spacingAndGlyphs" textLength="67" x="79.75" y="28.1543">Singletone</text><line style="stroke: #A80036; stroke-width: 1.5;" x1="7" x2="187" y1="40" y2="40"/><ellipse cx="17" cy="51.9023" fill="#84BE84" rx="3" ry="3" style="stroke: #038048; stroke-width: 1.0;"/><text fill="#000000" font-family="sans-serif" font-size="11" lengthAdjust="spacingAndGlyphs" text-decoration="underline" textLength="144" x="26" y="54.2104">Singletone* getInstance()</text><line style="stroke: #000000; stroke-width: 1.0;" x1="26" x2="170" y1="56.2104" y2="56.2104"/><line style="stroke: #A80036; stroke-width: 1.0;" x1="7" x2="187" y1="60.8047" y2="60.8047"/><rect fill="none" height="6" style="stroke: #C82930; stroke-width: 1.0;" width="6" x="14" y="69.707"/><text fill="#000000" font-family="sans-serif" font-size="11" lengthAdjust="spacingAndGlyphs" text-decoration="underline" textLength="156" x="26" y="75.0151">Singletone* uniqueInstance</text><line style="stroke: #000000; stroke-width: 1.0;" x1="26" x2="182" y1="77.0151" y2="77.0151"/><!--
@startuml

class Singletone {
	+ {static} Singletone* getInstance()
	- -
	- {static} Singletone* uniqueInstance
}

@enduml

PlantUML version 1.2018.13(Mon Nov 26 19:11:51 EET 2018)
(GPL source distribution)
Java Runtime: OpenJDK Runtime Environment
JVM: OpenJDK 64-Bit Server VM
Java Version: 11.0.10+9
Operating System: Linux
OS Version: 5.4.0-1039-azure
Default Encoding: UTF-8
Language: en
Country: null
--></g></svg>