<?xml version="1.0" encoding="UTF-8" standalone="no"?><svg xmlns="http://www.w3.org/2000/svg" xmlns:xlink="http://www.w3.org/1999/xlink" contentScriptType="application/ecmascript" contentStyleType="text/css" height="321px" preserveAspectRatio="none" style="width:442px;height:321px;" version="1.1" viewBox="0 0 442 321" width="442px" zoomAndPan="magnify"><defs><filter height="300%" id="fxi7zewovv77w" width="300%" x="-1" y="-1"><feGaussianBlur result="blurOut" stdDeviation="2.0"/><feColorMatrix in="blurOut" result="blurOut2" type="matrix" values="0 0 0 0 0 0 0 0 0 0 0 0 0 0 0 0 0 0 .4 0"/><feOffset dx="4.0" dy="4.0" in="blurOut2" result="blurOut3"/><feBlend in="SourceGraphic" in2="blurOut3" mode="normal"/></filter></defs><g><!--class Client--><rect fill="#FEFECE" filter="url(#fxi7zewovv77w)" height="60.8047" id="Client" style="stroke: #A80036; stroke-width: 1.5;" width="88" x="211" y="8"/><ellipse cx="235.45" cy="24" fill="#ADD1B2" rx="11" ry="11" style="stroke: #A80036; stroke-width: 1.0;"/><path d="M238.4188,29.6406 Q237.8406,29.9375 237.2,30.0781 Q236.5594,30.2344 235.8563,30.2344 Q233.3563,30.2344 232.0281,28.5938 Q230.7156,26.9375 230.7156,23.8125 Q230.7156,20.6875 232.0281,19.0313 Q233.3563,17.375 235.8563,17.375 Q236.5594,17.375 237.2,17.5313 Q237.8563,17.6875 238.4188,17.9844 L238.4188,20.7031 Q237.7938,20.125 237.2,19.8594 Q236.6063,19.5781 235.9813,19.5781 Q234.6375,19.5781 233.95,20.6563 Q233.2625,21.7188 233.2625,23.8125 Q233.2625,25.9063 233.95,26.9844 Q234.6375,28.0469 235.9813,28.0469 Q236.6063,28.0469 237.2,27.7813 Q237.7938,27.5 238.4188,26.9219 L238.4188,29.6406 Z "/><text fill="#000000" font-family="sans-serif" font-size="12" lengthAdjust="spacingAndGlyphs" textLength="35" x="251.55" y="28.1543">Client</text><line style="stroke: #A80036; stroke-width: 1.5;" x1="212" x2="298" y1="40" y2="40"/><line style="stroke: #A80036; stroke-width: 1.5;" x1="212" x2="298" y1="48" y2="48"/><ellipse cx="222" cy="59.9023" fill="#84BE84" rx="3" ry="3" style="stroke: #038048; stroke-width: 1.0;"/><text fill="#000000" font-family="sans-serif" font-size="11" lengthAdjust="spacingAndGlyphs" textLength="62" x="231" y="62.2104">operation()</text><!--class Prototype--><rect fill="#FEFECE" filter="url(#fxi7zewovv77w)" height="60.8047" id="Prototype" style="stroke: #A80036; stroke-width: 1.5;" width="93" x="208.5" y="129"/><ellipse cx="223.5" cy="145" fill="#ADD1B2" rx="11" ry="11" style="stroke: #A80036; stroke-width: 1.0;"/><path d="M226.4688,150.6406 Q225.8906,150.9375 225.25,151.0781 Q224.6094,151.2344 223.9063,151.2344 Q221.4063,151.2344 220.0781,149.5938 Q218.7656,147.9375 218.7656,144.8125 Q218.7656,141.6875 220.0781,140.0313 Q221.4063,138.375 223.9063,138.375 Q224.6094,138.375 225.25,138.5313 Q225.9063,138.6875 226.4688,138.9844 L226.4688,141.7031 Q225.8438,141.125 225.25,140.8594 Q224.6563,140.5781 224.0313,140.5781 Q222.6875,140.5781 222,141.6563 Q221.3125,142.7188 221.3125,144.8125 Q221.3125,146.9063 222,147.9844 Q222.6875,149.0469 224.0313,149.0469 Q224.6563,149.0469 225.25,148.7813 Q225.8438,148.5 226.4688,147.9219 L226.4688,150.6406 Z "/><text fill="#000000" font-family="sans-serif" font-size="12" lengthAdjust="spacingAndGlyphs" textLength="61" x="237.5" y="149.1543">Prototype</text><line style="stroke: #A80036; stroke-width: 1.5;" x1="209.5" x2="300.5" y1="161" y2="161"/><line style="stroke: #A80036; stroke-width: 1.5;" x1="209.5" x2="300.5" y1="169" y2="169"/><ellipse cx="219.5" cy="180.9023" fill="#84BE84" rx="3" ry="3" style="stroke: #038048; stroke-width: 1.0;"/><text fill="#000000" font-family="sans-serif" font-size="11" lengthAdjust="spacingAndGlyphs" textLength="38" x="228.5" y="183.2104">clone()</text><!--class ConcretePrototype1--><rect fill="#FEFECE" filter="url(#fxi7zewovv77w)" height="60.8047" id="ConcretePrototype1" style="stroke: #A80036; stroke-width: 1.5;" width="158" x="80" y="250"/><ellipse cx="95" cy="266" fill="#ADD1B2" rx="11" ry="11" style="stroke: #A80036; stroke-width: 1.0;"/><path d="M97.9688,271.6406 Q97.3906,271.9375 96.75,272.0781 Q96.1094,272.2344 95.4063,272.2344 Q92.9063,272.2344 91.5781,270.5938 Q90.2656,268.9375 90.2656,265.8125 Q90.2656,262.6875 91.5781,261.0313 Q92.9063,259.375 95.4063,259.375 Q96.1094,259.375 96.75,259.5313 Q97.4063,259.6875 97.9688,259.9844 L97.9688,262.7031 Q97.3438,262.125 96.75,261.8594 Q96.1563,261.5781 95.5313,261.5781 Q94.1875,261.5781 93.5,262.6563 Q92.8125,263.7188 92.8125,265.8125 Q92.8125,267.9063 93.5,268.9844 Q94.1875,270.0469 95.5313,270.0469 Q96.1563,270.0469 96.75,269.7813 Q97.3438,269.5 97.9688,268.9219 L97.9688,271.6406 Z "/><text fill="#000000" font-family="sans-serif" font-size="12" lengthAdjust="spacingAndGlyphs" textLength="126" x="109" y="270.1543">ConcretePrototype1</text><line style="stroke: #A80036; stroke-width: 1.5;" x1="81" x2="237" y1="282" y2="282"/><line style="stroke: #A80036; stroke-width: 1.5;" x1="81" x2="237" y1="290" y2="290"/><ellipse cx="91" cy="301.9023" fill="#84BE84" rx="3" ry="3" style="stroke: #038048; stroke-width: 1.0;"/><text fill="#000000" font-family="sans-serif" font-size="11" lengthAdjust="spacingAndGlyphs" textLength="38" x="100" y="304.2104">clone()</text><!--class ConcretePrototype2--><rect fill="#FEFECE" filter="url(#fxi7zewovv77w)" height="60.8047" id="ConcretePrototype2" style="stroke: #A80036; stroke-width: 1.5;" width="158" x="273" y="250"/><ellipse cx="288" cy="266" fill="#ADD1B2" rx="11" ry="11" style="stroke: #A80036; stroke-width: 1.0;"/><path d="M290.9688,271.6406 Q290.3906,271.9375 289.75,272.0781 Q289.1094,272.2344 288.4063,272.2344 Q285.9063,272.2344 284.5781,270.5938 Q283.2656,268.9375 283.2656,265.8125 Q283.2656,262.6875 284.5781,261.0313 Q285.9063,259.375 288.4063,259.375 Q289.1094,259.375 289.75,259.5313 Q290.4063,259.6875 290.9688,259.9844 L290.9688,262.7031 Q290.3438,262.125 289.75,261.8594 Q289.1563,261.5781 288.5313,261.5781 Q287.1875,261.5781 286.5,262.6563 Q285.8125,263.7188 285.8125,265.8125 Q285.8125,267.9063 286.5,268.9844 Q287.1875,270.0469 288.5313,270.0469 Q289.1563,270.0469 289.75,269.7813 Q290.3438,269.5 290.9688,268.9219 L290.9688,271.6406 Z "/><text fill="#000000" font-family="sans-serif" font-size="12" lengthAdjust="spacingAndGlyphs" textLength="126" x="302" y="270.1543">ConcretePrototype2</text><line style="stroke: #A80036; stroke-width: 1.5;" x1="274" x2="430" y1="282" y2="282"/><line style="stroke: #A80036; stroke-width: 1.5;" x1="274" x2="430" y1="290" y2="290"/><ellipse cx="284" cy="301.9023" fill="#84BE84" rx="3" ry="3" style="stroke: #038048; stroke-width: 1.0;"/><text fill="#000000" font-family="sans-serif" font-size="11" lengthAdjust="spacingAndGlyphs" textLength="38" x="293" y="304.2104">clone()</text><path d="M6,26 L6,51.1328 A0,0 0 0 0 6,51.1328 L176,51.1328 A0,0 0 0 0 176,51.1328 L176,44 L210.98,38.5 L176,36 L176,36 L166,26 L6,26 A0,0 0 0 0 6,26 " fill="#FBFB77" filter="url(#fxi7zewovv77w)" style="stroke: #A80036; stroke-width: 1.0;"/><path d="M166,26 L166,36 L176,36 L166,26 " fill="#FBFB77" style="stroke: #A80036; stroke-width: 1.0;"/><text fill="#000000" font-family="sans-serif" font-size="13" lengthAdjust="spacingAndGlyphs" textLength="149" x="12" y="43.0669">p = prototype-&gt;clone()</text><!--link Prototype to ConcretePrototype1--><path d="M218.26,206.05 C206.44,220.69 193.66,236.54 183,249.74 " fill="none" id="Prototype-ConcretePrototype1" style="stroke: #A80036; stroke-width: 1.0;"/><polygon fill="none" points="213.02,201.39,231.02,190.22,223.91,210.18,213.02,201.39" style="stroke: #A80036; stroke-width: 1.0;"/><!--link Prototype to ConcretePrototype2--><path d="M292.13,206.05 C304.07,220.69 316.98,236.54 327.75,249.74 " fill="none" id="Prototype-ConcretePrototype2" style="stroke: #A80036; stroke-width: 1.0;"/><polygon fill="none" points="286.44,210.15,279.23,190.22,297.29,201.3,286.44,210.15" style="stroke: #A80036; stroke-width: 1.0;"/><!--link Client to Prototype--><path d="M255,69.22 C255,85.69 255,106.26 255,123.51 " fill="none" id="Client-Prototype" style="stroke: #A80036; stroke-width: 1.0;"/><polygon fill="#A80036" points="255,128.74,259,119.74,255,123.74,251,119.74,255,128.74" style="stroke: #A80036; stroke-width: 1.0;"/><!--
@startuml


class Client {
	+operation()
}

class Prototype {
	+clone()
}
class ConcretePrototype1 {
	+clone()
}
class ConcretePrototype2 {
	+clone()
}

Prototype <|- - ConcretePrototype1
Prototype <|- - ConcretePrototype2
Client - -> Prototype

note left of Client
	p = prototype->clone()
end note


@enduml

PlantUML version 1.2018.13(Mon Nov 26 19:11:51 EET 2018)
(GPL source distribution)
Java Runtime: OpenJDK Runtime Environment
JVM: OpenJDK 64-Bit Server VM
Java Version: 11.0.10+9
Operating System: Linux
OS Version: 5.4.0-1039-azure
Default Encoding: UTF-8
Language: en
Country: null
--></g></svg>