<?xml version="1.0" encoding="UTF-8" standalone="no"?><svg xmlns="http://www.w3.org/2000/svg" xmlns:xlink="http://www.w3.org/1999/xlink" contentScriptType="application/ecmascript" contentStyleType="text/css" height="328px" preserveAspectRatio="none" style="width:466px;height:328px;" version="1.1" viewBox="0 0 466 328" width="466px" zoomAndPan="magnify"><defs><filter height="300%" id="f1le0pomfi9al3" width="300%" x="-1" y="-1"><feGaussianBlur result="blurOut" stdDeviation="2.0"/><feColorMatrix in="blurOut" result="blurOut2" type="matrix" values="0 0 0 0 0 0 0 0 0 0 0 0 0 0 0 0 0 0 .4 0"/><feOffset dx="4.0" dy="4.0" in="blurOut2" result="blurOut3"/><feBlend in="SourceGraphic" in2="blurOut3" mode="normal"/></filter></defs><g><rect fill="#FFFFFF" filter="url(#f1le0pomfi9al3)" height="221.9297" style="stroke: #A80036; stroke-width: 1.0;" width="10" x="35.5" y="48.2969"/><rect fill="#FFFFFF" filter="url(#f1le0pomfi9al3)" height="87.3984" style="stroke: #A80036; stroke-width: 1.0;" width="10" x="265.5" y="153.6953"/><line style="stroke: #A80036; stroke-width: 1.0; stroke-dasharray: 5.0,5.0;" x1="40" x2="40" y1="38.2969" y2="288.2266"/><line style="stroke: #A80036; stroke-width: 1.0; stroke-dasharray: 5.0,5.0;" x1="270" x2="270" y1="38.2969" y2="288.2266"/><line style="stroke: #A80036; stroke-width: 1.0; stroke-dasharray: 5.0,5.0;" x1="390" x2="390" y1="38.2969" y2="288.2266"/><rect fill="#FEFECE" filter="url(#f1le0pomfi9al3)" height="30.2969" style="stroke: #A80036; stroke-width: 1.5;" width="61" x="8" y="3"/><text fill="#000000" font-family="sans-serif" font-size="14" lengthAdjust="spacingAndGlyphs" textLength="47" x="15" y="22.9951">aClient</text><rect fill="#FEFECE" filter="url(#f1le0pomfi9al3)" height="30.2969" style="stroke: #A80036; stroke-width: 1.5;" width="61" x="8" y="287.2266"/><text fill="#000000" font-family="sans-serif" font-size="14" lengthAdjust="spacingAndGlyphs" textLength="47" x="15" y="307.2217">aClient</text><rect fill="#FEFECE" filter="url(#f1le0pomfi9al3)" height="30.2969" style="stroke: #A80036; stroke-width: 1.5;" width="77" x="230" y="3"/><text fill="#000000" font-family="sans-serif" font-size="14" lengthAdjust="spacingAndGlyphs" textLength="63" x="237" y="22.9951">aDirector</text><rect fill="#FEFECE" filter="url(#f1le0pomfi9al3)" height="30.2969" style="stroke: #A80036; stroke-width: 1.5;" width="77" x="230" y="287.2266"/><text fill="#000000" font-family="sans-serif" font-size="14" lengthAdjust="spacingAndGlyphs" textLength="63" x="237" y="307.2217">aDirector</text><rect fill="#FEFECE" filter="url(#f1le0pomfi9al3)" height="30.2969" style="stroke: #A80036; stroke-width: 1.5;" width="134" x="321" y="3"/><text fill="#000000" font-family="sans-serif" font-size="14" lengthAdjust="spacingAndGlyphs" textLength="120" x="328" y="22.9951">aConcreteBuilder</text><rect fill="#FEFECE" filter="url(#f1le0pomfi9al3)" height="30.2969" style="stroke: #A80036; stroke-width: 1.5;" width="134" x="321" y="287.2266"/><text fill="#000000" font-family="sans-serif" font-size="14" lengthAdjust="spacingAndGlyphs" textLength="120" x="328" y="307.2217">aConcreteBuilder</text><rect fill="#FFFFFF" filter="url(#f1le0pomfi9al3)" height="221.9297" style="stroke: #A80036; stroke-width: 1.0;" width="10" x="35.5" y="48.2969"/><rect fill="#FFFFFF" filter="url(#f1le0pomfi9al3)" height="87.3984" style="stroke: #A80036; stroke-width: 1.0;" width="10" x="265.5" y="153.6953"/><line style="stroke: #A80036; stroke-width: 1.0;" x1="45.5" x2="87.5" y1="69.4297" y2="69.4297"/><line style="stroke: #A80036; stroke-width: 1.0;" x1="87.5" x2="87.5" y1="69.4297" y2="82.4297"/><line style="stroke: #A80036; stroke-width: 1.0;" x1="46.5" x2="87.5" y1="82.4297" y2="82.4297"/><polygon fill="#A80036" points="56.5,78.4297,46.5,82.4297,56.5,86.4297,52.5,82.4297" style="stroke: #A80036; stroke-width: 1.0;"/><text fill="#000000" font-family="sans-serif" font-size="13" lengthAdjust="spacingAndGlyphs" textLength="131" x="52.5" y="64.3638">new ConcreteBuilder</text><line style="stroke: #A80036; stroke-width: 1.0;" x1="45.5" x2="87.5" y1="111.5625" y2="111.5625"/><line style="stroke: #A80036; stroke-width: 1.0;" x1="87.5" x2="87.5" y1="111.5625" y2="124.5625"/><line style="stroke: #A80036; stroke-width: 1.0;" x1="46.5" x2="87.5" y1="124.5625" y2="124.5625"/><polygon fill="#A80036" points="56.5,120.5625,46.5,124.5625,56.5,128.5625,52.5,124.5625" style="stroke: #A80036; stroke-width: 1.0;"/><text fill="#000000" font-family="sans-serif" font-size="13" lengthAdjust="spacingAndGlyphs" textLength="206" x="52.5" y="106.4966">new Director{aConcreteBuilder}</text><polygon fill="#A80036" points="253.5,149.6953,263.5,153.6953,253.5,157.6953,257.5,153.6953" style="stroke: #A80036; stroke-width: 1.0;"/><line style="stroke: #A80036; stroke-width: 1.0;" x1="45.5" x2="259.5" y1="153.6953" y2="153.6953"/><text fill="#000000" font-family="sans-serif" font-size="13" lengthAdjust="spacingAndGlyphs" textLength="70" x="52.5" y="148.6294">construct()</text><polygon fill="#A80036" points="378,178.8281,388,182.8281,378,186.8281,382,182.8281" style="stroke: #A80036; stroke-width: 1.0;"/><line style="stroke: #A80036; stroke-width: 1.0;" x1="275.5" x2="384" y1="182.8281" y2="182.8281"/><text fill="#000000" font-family="sans-serif" font-size="13" lengthAdjust="spacingAndGlyphs" textLength="75" x="282.5" y="177.7622">buildPartA()</text><polygon fill="#A80036" points="378,207.9609,388,211.9609,378,215.9609,382,211.9609" style="stroke: #A80036; stroke-width: 1.0;"/><line style="stroke: #A80036; stroke-width: 1.0;" x1="275.5" x2="384" y1="211.9609" y2="211.9609"/><text fill="#000000" font-family="sans-serif" font-size="13" lengthAdjust="spacingAndGlyphs" textLength="75" x="282.5" y="206.895">buildPartB()</text><polygon fill="#A80036" points="378,237.0938,388,241.0938,378,245.0938,382,241.0938" style="stroke: #A80036; stroke-width: 1.0;"/><line style="stroke: #A80036; stroke-width: 1.0;" x1="270.5" x2="384" y1="241.0938" y2="241.0938"/><text fill="#000000" font-family="sans-serif" font-size="13" lengthAdjust="spacingAndGlyphs" textLength="75" x="277.5" y="236.0278">buildPartC()</text><polygon fill="#A80036" points="378,266.2266,388,270.2266,378,274.2266,382,270.2266" style="stroke: #A80036; stroke-width: 1.0;"/><line style="stroke: #A80036; stroke-width: 1.0;" x1="40.5" x2="384" y1="270.2266" y2="270.2266"/><text fill="#000000" font-family="sans-serif" font-size="13" lengthAdjust="spacingAndGlyphs" textLength="70" x="47.5" y="265.1606">getResult()</text><!--
@startuml


activate aClient
aClient -> aClient : new ConcreteBuilder
aClient -> aClient : new Director{aConcreteBuilder}
aClient -> aDirector : construct()
activate aDirector
aDirector -> aConcreteBuilder : buildPartA()
aDirector -> aConcreteBuilder : buildPartB()
aDirector -> aConcreteBuilder : buildPartC()
deactivate aDirector
aClient -> aConcreteBuilder : getResult()
deactivate aClient


@enduml

PlantUML version 1.2018.13(Mon Nov 26 19:11:51 EET 2018)
(GPL source distribution)
Java Runtime: OpenJDK Runtime Environment
JVM: OpenJDK 64-Bit Server VM
Java Version: 11.0.10+9
Operating System: Linux
OS Version: 5.4.0-1039-azure
Default Encoding: UTF-8
Language: en
Country: null
--></g></svg>