<?xml version="1.0" encoding="UTF-8" standalone="no"?><svg xmlns="http://www.w3.org/2000/svg" xmlns:xlink="http://www.w3.org/1999/xlink" contentScriptType="application/ecmascript" contentStyleType="text/css" height="200px" preserveAspectRatio="none" style="width:326px;height:200px;" version="1.1" viewBox="0 0 326 200" width="326px" zoomAndPan="magnify"><defs><filter height="300%" id="f1y2mov1b25iet" width="300%" x="-1" y="-1"><feGaussianBlur result="blurOut" stdDeviation="2.0"/><feColorMatrix in="blurOut" result="blurOut2" type="matrix" values="0 0 0 0 0 0 0 0 0 0 0 0 0 0 0 0 0 0 .4 0"/><feOffset dx="4.0" dy="4.0" in="blurOut2" result="blurOut3"/><feBlend in="SourceGraphic" in2="blurOut3" mode="normal"/></filter></defs><g><!--class Product--><rect fill="#FEFECE" filter="url(#f1y2mov1b25iet)" height="48" id="Product" style="stroke: #A80036; stroke-width: 1.5;" width="81" x="34.5" y="14.5"/><ellipse cx="49.5" cy="30.5" fill="#ADD1B2" rx="11" ry="11" style="stroke: #A80036; stroke-width: 1.0;"/><path d="M52.4688,36.1406 Q51.8906,36.4375 51.25,36.5781 Q50.6094,36.7344 49.9063,36.7344 Q47.4063,36.7344 46.0781,35.0938 Q44.7656,33.4375 44.7656,30.3125 Q44.7656,27.1875 46.0781,25.5313 Q47.4063,23.875 49.9063,23.875 Q50.6094,23.875 51.25,24.0313 Q51.9063,24.1875 52.4688,24.4844 L52.4688,27.2031 Q51.8438,26.625 51.25,26.3594 Q50.6563,26.0781 50.0313,26.0781 Q48.6875,26.0781 48,27.1563 Q47.3125,28.2188 47.3125,30.3125 Q47.3125,32.4063 48,33.4844 Q48.6875,34.5469 50.0313,34.5469 Q50.6563,34.5469 51.25,34.2813 Q51.8438,34 52.4688,33.4219 L52.4688,36.1406 Z "/><text fill="#000000" font-family="sans-serif" font-size="12" lengthAdjust="spacingAndGlyphs" textLength="49" x="63.5" y="34.6543">Product</text><line style="stroke: #A80036; stroke-width: 1.5;" x1="35.5" x2="114.5" y1="46.5" y2="46.5"/><line style="stroke: #A80036; stroke-width: 1.5;" x1="35.5" x2="114.5" y1="54.5" y2="54.5"/><!--class ConcreteProduct--><rect fill="#FEFECE" filter="url(#f1y2mov1b25iet)" height="48" id="ConcreteProduct" style="stroke: #A80036; stroke-width: 1.5;" width="138" x="6" y="135.5"/><ellipse cx="21" cy="151.5" fill="#ADD1B2" rx="11" ry="11" style="stroke: #A80036; stroke-width: 1.0;"/><path d="M23.9688,157.1406 Q23.3906,157.4375 22.75,157.5781 Q22.1094,157.7344 21.4063,157.7344 Q18.9063,157.7344 17.5781,156.0938 Q16.2656,154.4375 16.2656,151.3125 Q16.2656,148.1875 17.5781,146.5313 Q18.9063,144.875 21.4063,144.875 Q22.1094,144.875 22.75,145.0313 Q23.4063,145.1875 23.9688,145.4844 L23.9688,148.2031 Q23.3438,147.625 22.75,147.3594 Q22.1563,147.0781 21.5313,147.0781 Q20.1875,147.0781 19.5,148.1563 Q18.8125,149.2188 18.8125,151.3125 Q18.8125,153.4063 19.5,154.4844 Q20.1875,155.5469 21.5313,155.5469 Q22.1563,155.5469 22.75,155.2813 Q23.3438,155 23.9688,154.4219 L23.9688,157.1406 Z "/><text fill="#000000" font-family="sans-serif" font-size="12" lengthAdjust="spacingAndGlyphs" textLength="106" x="35" y="155.6543">ConcreteProduct</text><line style="stroke: #A80036; stroke-width: 1.5;" x1="7" x2="143" y1="167.5" y2="167.5"/><line style="stroke: #A80036; stroke-width: 1.5;" x1="7" x2="143" y1="175.5" y2="175.5"/><!--class Creator--><rect fill="#FEFECE" filter="url(#f1y2mov1b25iet)" height="60.8047" id="Creator" style="stroke: #A80036; stroke-width: 1.5;" width="114" x="190" y="8"/><ellipse cx="220.75" cy="24" fill="#ADD1B2" rx="11" ry="11" style="stroke: #A80036; stroke-width: 1.0;"/><path d="M223.7188,29.6406 Q223.1406,29.9375 222.5,30.0781 Q221.8594,30.2344 221.1563,30.2344 Q218.6563,30.2344 217.3281,28.5938 Q216.0156,26.9375 216.0156,23.8125 Q216.0156,20.6875 217.3281,19.0313 Q218.6563,17.375 221.1563,17.375 Q221.8594,17.375 222.5,17.5313 Q223.1563,17.6875 223.7188,17.9844 L223.7188,20.7031 Q223.0938,20.125 222.5,19.8594 Q221.9063,19.5781 221.2813,19.5781 Q219.9375,19.5781 219.25,20.6563 Q218.5625,21.7188 218.5625,23.8125 Q218.5625,25.9063 219.25,26.9844 Q219.9375,28.0469 221.2813,28.0469 Q221.9063,28.0469 222.5,27.7813 Q223.0938,27.5 223.7188,26.9219 L223.7188,29.6406 Z "/><text fill="#000000" font-family="sans-serif" font-size="12" lengthAdjust="spacingAndGlyphs" textLength="47" x="238.25" y="28.1543">Creator</text><line style="stroke: #A80036; stroke-width: 1.5;" x1="191" x2="303" y1="40" y2="40"/><line style="stroke: #A80036; stroke-width: 1.5;" x1="191" x2="303" y1="48" y2="48"/><ellipse cx="201" cy="59.9023" fill="#84BE84" rx="3" ry="3" style="stroke: #038048; stroke-width: 1.0;"/><text fill="#000000" font-family="sans-serif" font-size="11" lengthAdjust="spacingAndGlyphs" textLength="88" x="210" y="62.2104">factoryMethod()</text><!--class ConcreteCreator--><rect fill="#FEFECE" filter="url(#f1y2mov1b25iet)" height="60.8047" id="ConcreteCreator" style="stroke: #A80036; stroke-width: 1.5;" width="136" x="179" y="129"/><ellipse cx="194" cy="145" fill="#ADD1B2" rx="11" ry="11" style="stroke: #A80036; stroke-width: 1.0;"/><path d="M196.9688,150.6406 Q196.3906,150.9375 195.75,151.0781 Q195.1094,151.2344 194.4063,151.2344 Q191.9063,151.2344 190.5781,149.5938 Q189.2656,147.9375 189.2656,144.8125 Q189.2656,141.6875 190.5781,140.0313 Q191.9063,138.375 194.4063,138.375 Q195.1094,138.375 195.75,138.5313 Q196.4063,138.6875 196.9688,138.9844 L196.9688,141.7031 Q196.3438,141.125 195.75,140.8594 Q195.1563,140.5781 194.5313,140.5781 Q193.1875,140.5781 192.5,141.6563 Q191.8125,142.7188 191.8125,144.8125 Q191.8125,146.9063 192.5,147.9844 Q193.1875,149.0469 194.5313,149.0469 Q195.1563,149.0469 195.75,148.7813 Q196.3438,148.5 196.9688,147.9219 L196.9688,150.6406 Z "/><text fill="#000000" font-family="sans-serif" font-size="12" lengthAdjust="spacingAndGlyphs" textLength="104" x="208" y="149.1543">ConcreteCreator</text><line style="stroke: #A80036; stroke-width: 1.5;" x1="180" x2="314" y1="161" y2="161"/><line style="stroke: #A80036; stroke-width: 1.5;" x1="180" x2="314" y1="169" y2="169"/><ellipse cx="190" cy="180.9023" fill="#84BE84" rx="3" ry="3" style="stroke: #038048; stroke-width: 1.0;"/><text fill="#000000" font-family="sans-serif" font-size="11" lengthAdjust="spacingAndGlyphs" textLength="88" x="199" y="183.2104">factoryMethod()</text><!--link Product to ConcreteProduct--><path d="M75,82.88 C75,100.62 75,120.44 75,135.33 " fill="none" id="Product-ConcreteProduct" style="stroke: #A80036; stroke-width: 1.0;"/><polygon fill="none" points="68,82.73,75,62.73,82,82.73,68,82.73" style="stroke: #A80036; stroke-width: 1.0;"/><!--link Creator to ConcreteCreator--><path d="M247,89.33 C247,102.73 247,116.81 247,128.74 " fill="none" id="Creator-ConcreteCreator" style="stroke: #A80036; stroke-width: 1.0;"/><polygon fill="none" points="240,89.22,247,69.22,254,89.22,240,89.22" style="stroke: #A80036; stroke-width: 1.0;"/><!--
@startuml


class Product
class ConcreteProduct

class Creator {
	+factoryMethod()
}

class ConcreteCreator {
	+factoryMethod()
}

Product <|- - ConcreteProduct
Creator <|- - ConcreteCreator


@enduml

PlantUML version 1.2018.13(Mon Nov 26 19:11:51 EET 2018)
(GPL source distribution)
Java Runtime: OpenJDK Runtime Environment
JVM: OpenJDK 64-Bit Server VM
Java Version: 11.0.10+9
Operating System: Linux
OS Version: 5.4.0-1039-azure
Default Encoding: UTF-8
Language: en
Country: null
--></g></svg>